<svg id="Layer_1" data-name="Layer 1" xmlns="http://www.w3.org/2000/svg" viewBox="0 0 110 45"><defs><style>.cls-1{fill:#777;}</style></defs><title>BTN</title><path class="cls-1" d="M88.42,41.78H21.58A19.31,19.31,0,0,1,8.05,8.72a18.83,18.83,0,0,1,13.53-5.5H88.42A18.8,18.8,0,0,1,102,8.72,19.31,19.31,0,0,1,88.42,41.78ZM21.38,4A18,18,0,0,0,8.6,9.28,18.53,18.53,0,0,0,21.58,41H88.42a18.53,18.53,0,0,0,13-31.72A17.92,17.92,0,0,0,88.42,4h-67Z"/><path class="cls-1" d="M37.72,26.45a3.08,3.08,0,0,1-2.29-.78,3.24,3.24,0,0,1-.76-2.35V20.68a3.31,3.31,0,0,1,.76-2.39,3.06,3.06,0,0,1,2.3-.79,3.12,3.12,0,0,1,2.24.71,3.3,3.3,0,0,1,.81,2.25l-1.09.11a2.77,2.77,0,0,0-.53-1.63,1.87,1.87,0,0,0-1.44-.46,2,2,0,0,0-1.52.5,2.59,2.59,0,0,0-.44,1.7v2.64A2.48,2.48,0,0,0,36.2,25a2,2,0,0,0,1.52.49A1.91,1.91,0,0,0,39.16,25a2.66,2.66,0,0,0,.53-1.59l1.09.1A3.24,3.24,0,0,1,40,25.75,3.14,3.14,0,0,1,37.72,26.45Z"/><path class="cls-1" d="M48,26.34l-.76-2.51h-3l-.75,2.51H42.35l2.81-8.73h1.15l2.81,8.73Zm-1-3.49-1.2-4-1.21,4Z"/><path class="cls-1" d="M55,26.34,52.1,19v7.36h-1V17.61h1.49l3,7.52V17.61h1v8.73Z"/><path class="cls-1" d="M62.07,26.45a3.07,3.07,0,0,1-2.29-.78A3.24,3.24,0,0,1,59,23.32V20.68a3.31,3.31,0,0,1,.76-2.39,3.8,3.8,0,0,1,4.53-.08,3.26,3.26,0,0,1,.82,2.25L64,20.57a2.84,2.84,0,0,0-.53-1.63,1.87,1.87,0,0,0-1.44-.46,2,2,0,0,0-1.52.5,2.59,2.59,0,0,0-.44,1.7v2.64A2.48,2.48,0,0,0,60.55,25a2,2,0,0,0,1.52.49A1.91,1.91,0,0,0,63.51,25,2.73,2.73,0,0,0,64,23.43l1.09.1a3.2,3.2,0,0,1-.82,2.22A3.1,3.1,0,0,1,62.07,26.45Z"/><path class="cls-1" d="M67.35,26.34V17.61H73v1H68.44V21.1h4v1h-4v3.28H73v1Z"/><path class="cls-1" d="M76,26.34V17.61H77.1v7.75h3.82v1Z"/></svg>