<svg id="Layer_1" data-name="Layer 1" xmlns="http://www.w3.org/2000/svg" viewBox="0 0 40 40"><defs><style>.cls-1{fill:#383838;}</style></defs><title>BTN</title><rect class="cls-1" x="20.83" y="8.46" width="0.78" height="25.51" transform="translate(-8.79 21.22) rotate(-45)"/><path class="cls-1" d="M11.23,13.1a1.82,1.82,0,0,1-1.31-.55,1.85,1.85,0,0,1,0-2.63,1.9,1.9,0,0,1,2.63,0h0a1.85,1.85,0,0,1,0,2.63A1.83,1.83,0,0,1,11.23,13.1Zm0-2.95a1.09,1.09,0,1,0,.77.32h0A1.1,1.1,0,0,0,11.23,10.15Z"/><rect class="cls-1" x="6.03" y="20.83" width="25.51" height="0.78" transform="translate(-9.5 19.5) rotate(-45)"/><path class="cls-1" d="M28.77,13.1a1.83,1.83,0,0,1-1.32-.55,1.85,1.85,0,0,1,0-2.63,1.9,1.9,0,0,1,2.63,0,1.85,1.85,0,0,1,0,2.63A1.82,1.82,0,0,1,28.77,13.1Zm0-2.95a1.1,1.1,0,0,0-.77.32h0a1.07,1.07,0,1,0,.77-.32Z"/><path class="cls-1" d="M20,39.28A19.28,19.28,0,1,1,39.28,20,19.3,19.3,0,0,1,20,39.28ZM20,1.5A18.5,18.5,0,1,0,38.5,20,18.52,18.52,0,0,0,20,1.5Z"/></svg>