<svg id="Layer_1" data-name="Layer 1" xmlns="http://www.w3.org/2000/svg" viewBox="0 0 40 40"><defs><style>.cls-1{fill:#383838;}</style></defs><title>BTN</title><rect class="cls-1" x="7.58" y="24" width="19.25" height="0.78" transform="translate(-12.21 19.31) rotate(-45)"/><path class="cls-1" d="M25.22,18.48a2.11,2.11,0,0,1-1.49-3.6l2.66-2.66a2.16,2.16,0,0,1,3,0A2.06,2.06,0,0,1,30,13.71a2.1,2.1,0,0,1-.62,1.49l-2.66,2.66A2.15,2.15,0,0,1,25.22,18.48Zm2.66-6.1a1.31,1.31,0,0,0-.93.39l-2.67,2.66a1.35,1.35,0,0,0,0,1.88,1.33,1.33,0,0,0,1.88,0l2.66-2.66a1.29,1.29,0,0,0,.39-.94,1.28,1.28,0,0,0-.39-.94A1.32,1.32,0,0,0,27.88,12.38Z"/><path class="cls-1" d="M26.63,25l-.55-.55a5.26,5.26,0,0,0,1.58-3.66,7,7,0,0,0-2.43-5c-2-2-2.92-3.66-2.8-5a1.86,1.86,0,0,1,.68-1.36L24,8.53l.55.55-.91.91a1.15,1.15,0,0,0-.4.86c-.05.76.35,2.13,2.58,4.36C29.7,19.12,28.69,22.91,26.63,25Z"/><path class="cls-1" d="M20,39.28A19.28,19.28,0,1,1,39.28,20,19.3,19.3,0,0,1,20,39.28ZM20,1.5A18.5,18.5,0,1,0,38.5,20,18.52,18.52,0,0,0,20,1.5Z"/></svg>