<svg id="Layer_1" data-name="Layer 1" xmlns="http://www.w3.org/2000/svg" viewBox="0 0 110 45"><defs><style>.cls-1{fill:#ffde17;}.cls-2{fill:#383838;}</style></defs><title>BTN</title><path class="cls-1" d="M88.42,41.79H21.58A19.32,19.32,0,0,1,8.05,8.72a18.64,18.64,0,0,1,13.53-5.5H88.42A18.64,18.64,0,0,1,102,8.72,19.32,19.32,0,0,1,88.42,41.79ZM21.38,4A18,18,0,0,0,8.6,9.28,18.53,18.53,0,0,0,21.58,41H88.42a18.53,18.53,0,0,0,13-31.72A18,18,0,0,0,88.43,4H21.38Z"/><path class="cls-2" d="M41.76,26.4a5.27,5.27,0,0,1-1.84-.31,3.59,3.59,0,0,1-1.52-1.16l.78-.74a3,3,0,0,0,1.1.93,3.51,3.51,0,0,0,1.51.3,2.09,2.09,0,0,0,1.3-.37,1.22,1.22,0,0,0,.5-1,1.13,1.13,0,0,0-.43-1,5.64,5.64,0,0,0-1.68-.7,5.88,5.88,0,0,1-2.17-1,2,2,0,0,1-.58-1.52,2,2,0,0,1,.76-1.71,2.93,2.93,0,0,1,1.84-.58,4.84,4.84,0,0,1,1.74.32A3.35,3.35,0,0,1,44.53,19l-.76.75a2.79,2.79,0,0,0-1.09-.93,3.14,3.14,0,0,0-1.33-.3,1.93,1.93,0,0,0-1.1.28,1,1,0,0,0-.41.93,1.06,1.06,0,0,0,.45.91,6.53,6.53,0,0,0,1.78.72,5.35,5.35,0,0,1,2.06.95,2,2,0,0,1,.55,1.5,2.23,2.23,0,0,1-.89,1.91A3.35,3.35,0,0,1,41.76,26.4Z"/><path class="cls-2" d="M52,26.34l-.76-2.51h-3l-.75,2.51H46.35l2.81-8.73h1.15l2.81,8.73Zm-1-3.49-1.2-4-1.21,4Z"/><path class="cls-2" d="M58.43,26.34H57.28l-2.81-8.73h1.17L57.87,25l2.23-7.34h1.14Z"/><path class="cls-2" d="M63.24,26.34V17.61h5.67v1H64.33V21.1h4v1h-4v3.28h4.58v1Z"/></svg>